<svg width="40" height="40" fill="none" xmlns="http://www.w3.org/2000/svg"><g filter="url(#a)"><rect x="4" y="2" width="32" height="32" rx="10" fill="#FF8484"/></g><g clip-path="url(#b)" fill="#fff"><path d="M22.207 15.797a.375.375 0 0 0-.375.375v7.081a.375.375 0 0 0 .75 0v-7.081a.375.375 0 0 0-.375-.375ZM17.785 15.797a.375.375 0 0 0-.374.375v7.081a.375.375 0 0 0 .75 0v-7.081a.375.375 0 0 0-.376-.375Z"/><path d="M14.563 14.763v9.232c0 .546.2 1.058.55 1.426.348.369.832.578 1.338.579h7.09c.507 0 .991-.21 1.339-.579.35-.368.55-.88.55-1.426v-9.232a1.431 1.431 0 0 0-.368-2.815h-1.918v-.468A1.472 1.472 0 0 0 21.66 10h-3.328a1.473 1.473 0 0 0-1.483 1.48v.468H14.93a1.432 1.432 0 0 0-.367 2.815Zm8.978 10.488h-7.09c-.64 0-1.139-.55-1.139-1.256v-9.199h9.368v9.2c0 .704-.498 1.255-1.139 1.255Zm-5.943-13.77a.721.721 0 0 1 .735-.732h3.327a.722.722 0 0 1 .734.731v.468h-4.796v-.468Zm-2.668 1.217h10.132a.675.675 0 0 1 0 1.349H14.93a.675.675 0 0 1 0-1.35Z"/><path d="M19.996 15.797a.375.375 0 0 0-.374.375v7.081a.375.375 0 1 0 .749 0v-7.081a.375.375 0 0 0-.375-.375Z"/></g><defs><clipPath id="b"><path fill="#fff" transform="translate(12 10)" d="M0 0h16v16H0z"/></clipPath><filter id="a" x="0" y="0" width="40" height="40" filterUnits="userSpaceOnUse" color-interpolation-filters="sRGB"><feFlood flood-opacity="0" result="BackgroundImageFix"/><feColorMatrix in="SourceAlpha" values="0 0 0 0 0 0 0 0 0 0 0 0 0 0 0 0 0 0 127 0" result="hardAlpha"/><feOffset dy="2"/><feGaussianBlur stdDeviation="2"/><feComposite in2="hardAlpha" operator="out"/><feColorMatrix values="0 0 0 0 0 0 0 0 0 0 0 0 0 0 0 0 0 0 0.1 0"/><feBlend in2="BackgroundImageFix" result="effect1_dropShadow_4_347"/><feBlend in="SourceGraphic" in2="effect1_dropShadow_4_347" result="shape"/></filter></defs></svg>